<svg xmlns="http://www.w3.org/2000/svg" xmlns:xlink="http://www.w3.org/1999/xlink" viewBox="0 0 641.86 209.43"><defs><style>.cls-1{fill:#7e8082;stroke:#7f8082;stroke-miterlimit:10;stroke-width:2px;}.cls-2{fill:url(#linear-gradient);}.cls-3{fill:url(#linear-gradient-2);}.cls-4{fill:url(#linear-gradient-3);}.cls-5{fill:url(#linear-gradient-4);}.cls-6{fill:url(#linear-gradient-5);}</style><linearGradient id="linear-gradient" x1="368.36" y1="79.59" x2="327.24" y2="8.37" gradientUnits="userSpaceOnUse"><stop offset="0" stop-color="#1b75bc"/><stop offset="0.48" stop-color="#1b73ba"/><stop offset="0.66" stop-color="#1c6db3"/><stop offset="0.78" stop-color="#1e63a8"/><stop offset="0.88" stop-color="#215497"/><stop offset="0.96" stop-color="#244181"/><stop offset="1" stop-color="#263675"/></linearGradient><linearGradient id="linear-gradient-2" x1="521.92" y1="77.69" x2="475.6" y2="-2.53" xlink:href="#linear-gradient"/><linearGradient id="linear-gradient-3" x1="571.71" y1="77.04" x2="532.7" y2="9.48" xlink:href="#linear-gradient"/><linearGradient id="linear-gradient-4" x1="623.26" y1="79.57" x2="578.35" y2="1.79" xlink:href="#linear-gradient"/><linearGradient id="linear-gradient-5" x1="470.62" y1="201.76" x2="355.03" y2="1.55" gradientTransform="translate(5.53 -25.32) rotate(1.03)" gradientUnits="userSpaceOnUse"><stop offset="0" stop-color="#1b75bc"/><stop offset="0.28" stop-color="#1b72b9"/><stop offset="0.5" stop-color="#1d69af"/><stop offset="0.7" stop-color="#205a9e"/><stop offset="0.89" stop-color="#234687"/><stop offset="1" stop-color="#263675"/></linearGradient></defs><title>sleepysquid_blue</title><g id="Layer_2" data-name="Layer 2"><g id="Layer_1-2" data-name="Layer 1"><path d="M450.25,127.68l.1.13a7,7,0,0,1-.44-.54l-.1-.14Z"/><path d="M451.12,128.45a.55.55,0,0,1-.23-.1l-.37-.37A3,3,0,0,0,451.12,128.45Z"/><path class="cls-1" d="M41.41,18.62C37.88,13,32.9,9.39,25.53,9.39A14.7,14.7,0,0,0,10.8,24.33C10.8,32.53,18.58,36,24.91,39l14.94,7.78c5.91,3.74,8.92,8.51,8.92,15.56C48.77,75.27,37,85,24.29,85c-10.9,0-19.4-6.75-23-16.81l4.36-2c3.32,8.3,9.44,14.11,18.89,14.11,10.27,0,19.29-8.1,19.29-18.47,0-8.82-9-12.56-15.77-15.88L13.91,38.54c-5.19-3.21-8.09-7.78-8.09-14,0-11.62,8.3-19.82,20-19.82a21.9,21.9,0,0,1,19.09,11Z"/><path class="cls-1" d="M68.69,79.32H88.61V84H63.71V5.76h5Z"/><path class="cls-1" d="M104.69,10.43V38.86h31.54v4.66H104.69v35.8h32.37V84H99.71V5.76h37.35v4.67Z"/><path class="cls-1" d="M159.37,10.43V38.86h31.54v4.66H159.37v35.8h32.37V84H154.39V5.76h37.35v4.67Z"/><path class="cls-1" d="M214,84h-5V5.76h13.8c6.12,0,12,.41,16.91,4.56a20.75,20.75,0,0,1,7.06,16.09c0,5.6-2.18,11.82-6.54,15.45-4.77,4.15-11.31,5-17.43,5H214Zm9-41.81c5.08,0,9.65-.63,13.69-4.26a15.31,15.31,0,0,0,5.09-11.72c0-4.88-2-9.76-5.92-12.66s-8.92-3.11-13.69-3.11H214V42.18Z"/><path class="cls-1" d="M252.11,5.76h5.5l23,39.63,23-39.63h5.5l-26,44.82V84h-5V50.58Z"/><path class="cls-2" d="M325,65.37c4.65,2.94,14.2,7.1,22.66,7.1,6.49,0,13.1-2.08,13.1-11.27,0-7.71-7-10-15.55-12.37-12.13-3.3-23.4-8.08-23.4-23.76,0-14.94,11.52-24,27.56-24a40.08,40.08,0,0,1,28.05,11.52l-8,9.92c-6.37-5.27-13.35-8.7-20.09-8.7-5.51,0-12,2.33-12,9.92s7.1,9.92,16.29,12.74c11.15,3.55,22.9,8.33,22.9,24.13,0,16.17-11.51,24.87-29.15,24.87-12,0-23.76-4.78-27.93-7.84Z"/><path class="cls-3" d="M481.65,2.53V57.41c0,12,6.73,15.55,16,15.55C506.76,73,513,68.06,513,58V2.53h15V60.1c0,16.05-12.5,25.36-30.75,25.36-20.08,0-30.37-8.09-30.37-27.32V2.53Z"/><path class="cls-4" d="M544.73,84V2.53h14.94V84Z"/><path class="cls-5" d="M577.07,2.53h26.58c23.39,0,38.21,12.37,38.21,37.85C641.86,72.47,624,84,604.26,84H577.07ZM592,72.23H604.5c13.72,0,22.3-10.05,22.3-29.64,0-22.05-10.66-28.18-23.89-28.18H592Z"/><path class="cls-6" d="M445.35,42.71a5.24,5.24,0,0,1-.21-1.69,4,4,0,0,1,1.51-3l1.6-1.28c1.62-1.33,3.74-2.72,4.72-4.58a8.5,8.5,0,0,0,1.18-6.55,9.83,9.83,0,0,0-2.4-4.42L439,7.58c-.49-.48-1-1-1.5-1.42-.84-.76-2.24-2-2.84-2.48-6.65-5.24-18.42-5.28-25.65,2.47L396.49,19.3c-1.24,1.3-4.84,5.31-5.14,7.1-1,5.8,4.66,10.06,4.66,10.06l2.71,2.09c3.76,2.31-2,7.76-2,7.76C384.76,61.78,382.37,74,382.37,74c-3.32,11,1.83,12.22,3.86,13.42a23,23,0,0,0,3.64,1.5,33.72,33.72,0,0,0,4.44,1.4,3.81,3.81,0,0,1,2.91,3.7q0,30.94,0,61.9c0,1-.22,2.06-.24,3.1-.11,4.46-1.06,9,.65,13.34.08.19.13.39.2.59.52,1.42,1.27,2.87,3,2.75s2.75-1.47,3.09-3.18a51.16,51.16,0,0,0,1-14c-.31-7.66-.44-16.92-.52-24.58-.15-14.3-.1-28.6-.09-42.9l6.81.11q0,46.39,0,92.8c0,4.38-.32,8.75-.48,13.13a6.87,6.87,0,0,0,.94,4.5h0l.46.57a.69.69,0,0,0,.11.13,1.54,1.54,0,0,0,.17.19,3,3,0,0,0,.52.49,2.91,2.91,0,0,0,2.62.49l.47-.12a4.57,4.57,0,0,0,1.61-2.71,1.17,1.17,0,0,1,.1-.23,15.53,15.53,0,0,0,.38-1.67c.86-5.39.05-10.92,0-16.38q0-45.56,0-91.09l6.69.11q0,46.3,0,92.63c0,3.87-.2,7.75-.53,11.61s-.48,7.65.9,11.27c.42,1.11,1.84,2.54,2.81,2.55s2.29-1.47,2.75-2.59c1.58-3.74,1.33-7.7.92-11.66a77.86,77.86,0,0,1-.62-8.06q-.06-47.84,0-95.66l6.95.12q0,31.13,0,62.24a67.15,67.15,0,0,1-.53,8.14c-.33,2.68-.47,5.36.91,7.9a4,4,0,0,0,2.81,1.78,4.13,4.13,0,0,0,2.75-1.81c1.57-2.62,1.32-5.4.91-8.17A38.74,38.74,0,0,1,444,156q-.06-31.2,0-62.42a2.12,2.12,0,0,1,1.76-2.09c2.28-.42,4.77-1.46,6.83-2a16.71,16.71,0,0,0,6.72-3.76,5.55,5.55,0,0,0,1.16-1.55c2.07-15.15-11.19-35.08-14.21-39.39A5.45,5.45,0,0,1,445.35,42.71Zm-40,15.5a10.27,10.27,0,0,1-3.06-1.3,5.12,5.12,0,0,1-1.24-1.3.37.37,0,0,1-.05-.11.63.63,0,0,1,.66-.77l.16,0a31.3,31.3,0,0,0,4.33.79,19,19,0,0,0,8.43-1.18c.52-.24,1-.58,1.51-.8l.19-.07a.67.67,0,0,1,.77,1h0a7.45,7.45,0,0,1-4.23,3.41,16.56,16.56,0,0,1-1.88.43A13.34,13.34,0,0,1,405.35,58.21Zm18.89,16.27a4.14,4.14,0,0,1-3.59.63c-2.78-.79-3.46-3.49-1.62-4.88a5.45,5.45,0,0,1,1-.56,4.52,4.52,0,0,1,3.5-.14,4.11,4.11,0,0,1,.6.28C426.05,70.94,426.1,73.11,424.24,74.48ZM432,58.25a8.72,8.72,0,0,1-3.95-2.36,5.39,5.39,0,0,1-1-1.24,1.15,1.15,0,0,1-.1-.33.66.66,0,0,1,.82-.75,1.3,1.3,0,0,1,.34.15,11.59,11.59,0,0,0,4.53,1.63,28.78,28.78,0,0,0,6.21.17,21.9,21.9,0,0,0,3.23-.69l.17,0a.64.64,0,0,1,.61.93h0a4.49,4.49,0,0,1-3.07,2.11,23.55,23.55,0,0,1-2.89.61A11.21,11.21,0,0,1,432,58.25Z"/></g></g></svg>