<svg xmlns="http://www.w3.org/2000/svg" viewBox="0 0 155.28 409.87"><defs><style>.cls-1{fill:#fff;}</style></defs><title>squid_white</title><g id="Layer_2" data-name="Layer 2"><g id="Layer_1-2" data-name="Layer 1"><path class="cls-1" d="M125.38,83.58a10.65,10.65,0,0,1-.4-3.31,7.75,7.75,0,0,1,3-5.76l3.13-2.5c3.17-2.62,7.33-5.33,9.25-9,1.16-2.22,3.8-6.35,2.29-12.82a19.17,19.17,0,0,0-4.69-8.64L113,14.84c-1-.95-1.93-1.88-2.93-2.79-1.64-1.47-4.38-3.91-5.56-4.85C91.52-3,68.5-3.13,54.35,12L29.77,37.76c-2.44,2.56-9.48,10.41-10.06,13.9-1.9,11.37,9.12,19.7,9.12,19.7l5.3,4.09c7.36,4.52-4,15.18-4,15.18-23.35,30.28-28,54.22-28,54.22-6.5,21.47,3.57,23.92,7.55,26.26,2.77,1.6,5,2,7.13,2.92a65.27,65.27,0,0,0,8.69,2.75A7.46,7.46,0,0,1,31.2,184q0,60.58,0,121.15c0,2-.42,4-.47,6.06-.22,8.73-2.07,17.55,1.28,26.1.15.38.24.78.39,1.16,1,2.79,2.48,5.61,5.78,5.39s5.38-2.89,6.06-6.22c2.1-10.47,2.3-17.12,1.88-27.42-.6-15-.86-33.12-1-48.12-.29-28-.19-56-.18-84l13.32.21q0,90.81,0,181.62c0,8.57-.61,17.12-.94,25.7-.14,3.78.18,6.35,1.86,8.81h0l.89,1.12a2.75,2.75,0,0,0,.22.26c.11.13.22.25.34.37a5.76,5.76,0,0,0,1,1c1.69,1.06,3.15,1.57,5.12.95l.93-.23a9,9,0,0,0,3.14-5.31,1.85,1.85,0,0,1,.19-.44,31.93,31.93,0,0,0,.76-3.28c1.69-10.53.08-21.36.08-32.06q-.06-89.13-.07-178.26l13.1.21q0,90.65,0,181.3c0,7.57-.4,15.17-1,22.71s-.94,15,1.76,22.05c.83,2.18,3.6,5,5.51,5s4.47-2.88,5.38-5.07c3.08-7.31,2.58-15.08,1.78-22.81A157.86,157.86,0,0,1,97,366.21q-.1-93.61,0-187.21l13.6.22q0,60.92,0,121.82a134.8,134.8,0,0,1-1,15.92c-.64,5.26-.93,10.5,1.77,15.46.82,1.53,3.59,3.49,5.5,3.5s4.47-2,5.38-3.55c3.08-5.12,2.59-10.57,1.79-16a75.44,75.44,0,0,1-1.22-11.06q-.09-61.06,0-122.15a4.19,4.19,0,0,1,3.45-4.11c4.47-.81,9.34-2.84,13.36-3.87a33.35,33.35,0,0,0,13.17-7.36c.57-.58,2.18-2.41,2.26-3,4-29.65-21.91-68.67-27.81-77.09A10.7,10.7,0,0,1,125.38,83.58ZM47.1,113.92a19.53,19.53,0,0,1-6-2.55,10.14,10.14,0,0,1-2.43-2.54.74.74,0,0,1-.1-.22,1.23,1.23,0,0,1,1.29-1.5,1.87,1.87,0,0,1,.32,0c2.83.51,5.64,1.45,8.48,1.54,5.59.19,11.22,0,16.49-2.31,1-.45,1.94-1.13,3-1.56a2,2,0,0,1,.36-.13,1.33,1.33,0,0,1,1.52,2h0a14.55,14.55,0,0,1-8.29,6.67,29.9,29.9,0,0,1-3.66.84A25.91,25.91,0,0,1,47.1,113.92Zm37,31.84a8.15,8.15,0,0,1-7,1.23c-5.45-1.54-6.77-6.83-3.17-9.54a9.83,9.83,0,0,1,1.89-1.1,8.81,8.81,0,0,1,6.85-.27,6.6,6.6,0,0,1,1.17.55C87.61,138.83,87.71,143.08,84.08,145.76ZM99.26,114a17.24,17.24,0,0,1-7.73-4.62,10.55,10.55,0,0,1-2-2.45,2.21,2.21,0,0,1-.2-.63A1.29,1.29,0,0,1,91,104.85a2.15,2.15,0,0,1,.66.28,22.76,22.76,0,0,0,8.87,3.2,57,57,0,0,0,12.15.32c2.12-.1,4.2-.92,6.33-1.34a1.88,1.88,0,0,1,.33,0,1.25,1.25,0,0,1,1.19,1.82h0c-1.24,2.45-3.64,3.46-6,4.13a48.86,48.86,0,0,1-5.65,1.19A22.07,22.07,0,0,1,99.26,114Z"/></g></g></svg>